<svg height='100px' width='100px'  fill="#FF0000" xmlns="http://www.w3.org/2000/svg" xmlns:xlink="http://www.w3.org/1999/xlink" version="1.1" x="0px" y="0px" viewBox="0 0 100 100" style="enable-background:new 0 0 100 100;" xml:space="preserve"><path d="M54.49316,24.24121c-1.16211-1.26367-2.84082-1.98828-4.60645-1.98828c-0.00098,0-0.00098,0-0.00098,0  c-1.76562,0-3.44434,0.7251-4.60547,1.98828c-0.27539,0.30029-0.3418,0.7373-0.16699,1.10547  c2.91016,6.13379,3.76953,15.23584,3.77734,15.32715c0.04688,0.51514,0.47949,0.90918,0.99609,0.90918  s0.94922-0.39404,0.99609-0.90918c0.00781-0.09131,0.86719-9.19336,3.77734-15.32715  C54.83496,24.97852,54.76855,24.54102,54.49316,24.24121z M49.88672,34.00684c-0.56641-2.77686-1.41797-6.02246-2.66113-8.84912  c1.47461-1.16113,3.8457-1.16211,5.32227,0C51.30469,27.98438,50.45312,31.22998,49.88672,34.00684z"></path><path d="M49.88672,19.30078c2.56348,0,4.64941-2.08594,4.64941-4.6499s-2.08594-4.6499-4.64941-4.6499  c-2.56445,0-4.65039,2.08594-4.65039,4.6499S47.32227,19.30078,49.88672,19.30078z M49.88672,12.00098  c1.46094,0,2.64941,1.18896,2.64941,2.6499s-1.18848,2.6499-2.64941,2.6499c-1.46191,0-2.65039-1.18896-2.65039-2.6499  S48.4248,12.00098,49.88672,12.00098z"></path><path d="M65.73926,27.604c-0.38672,0.02832-0.72266,0.27783-0.86133,0.64014c-2.55859,6.68555-8.80566,14.14893-8.86816,14.22363  c-0.33496,0.39697-0.30957,0.98389,0.05762,1.35107c0.19434,0.19434,0.4502,0.29297,0.70703,0.29297  c0.22852,0,0.45703-0.07764,0.64355-0.23486c0.0752-0.06299,7.53906-6.30908,14.22461-8.86768  c0.3623-0.13867,0.6123-0.47461,0.63965-0.86182c0.12891-1.77295-0.51855-3.51074-1.77539-4.76758  C69.24902,28.12354,67.51562,27.47803,65.73926,27.604z M61.70898,38.17773c1.69531-2.50098,3.54102-5.56201,4.78223-8.57812  c0.97559,0.07324,1.89941,0.49268,2.60156,1.19434c0.70117,0.70166,1.12109,1.62598,1.19434,2.60156  C67.27051,34.63623,64.20996,36.48291,61.70898,38.17773z"></path><path d="M80.53223,24.00439c0-1.24219-0.4834-2.41016-1.3623-3.28809c-0.87793-0.87842-2.0459-1.36182-3.28809-1.36182  c-1.24121,0-2.40918,0.4834-3.28711,1.36182c-0.87891,0.87842-1.3623,2.0459-1.3623,3.28809c0,1.2417,0.4834,2.40967,1.3623,3.2876  c0.87793,0.87842,2.04492,1.3623,3.28711,1.3623c1.24316,0,2.41016-0.48389,3.28809-1.3623  C80.04883,26.41406,80.53223,25.24609,80.53223,24.00439z M77.75586,25.87793c-1.00098,1.00049-2.74414,1.00146-3.74707,0  c-0.50098-0.50049-0.77637-1.16602-0.77637-1.87354c0-0.70801,0.27539-1.37354,0.77637-1.87402  c0.5-0.50049,1.16602-0.77588,1.87305-0.77588c0.70801,0,1.37402,0.27539,1.87402,0.77588  c0.50098,0.50049,0.77637,1.16602,0.77637,1.87402C78.53223,24.71191,78.25684,25.37744,77.75586,25.87793z"></path><path d="M74.45703,45.2168c-6.53809,2.91797-16.23145,3.77832-16.3291,3.78711c-0.5166,0.04443-0.91406,0.47705-0.91406,0.99609  s0.39746,0.95215,0.91504,0.99658c0.09668,0.0083,9.7832,0.86572,16.32812,3.78662c0.13086,0.05859,0.26953,0.08691,0.40723,0.08691  c0.23535,0,0.46875-0.0835,0.6543-0.24365c1.34375-1.1626,2.11523-2.84912,2.11523-4.62646s-0.77148-3.46387-2.11523-4.62646  C75.22461,45.11914,74.80762,45.05811,74.45703,45.2168z M74.63867,52.68408C71.62891,51.42871,68.1582,50.56982,65.19141,50  c2.9668-0.56982,6.4375-1.42871,9.44727-2.68408c0.63867,0.7417,0.99512,1.69189,0.99512,2.68408  S75.27734,51.94238,74.63867,52.68408z"></path><path d="M85.23633,54.6499c2.56348,0,4.64941-2.08594,4.64941-4.6499s-2.08594-4.6499-4.64941-4.6499  c-2.56445,0-4.65039,2.08594-4.65039,4.6499S82.67188,54.6499,85.23633,54.6499z M85.23633,47.3501  c1.46094,0,2.64941,1.18896,2.64941,2.6499s-1.18848,2.6499-2.64941,2.6499c-1.46191,0-2.65039-1.18896-2.65039-2.6499  S83.77441,47.3501,85.23633,47.3501z"></path><path d="M65.87793,71.75586c0.13867,0.3623,0.47461,0.61182,0.86133,0.64014c0.14844,0.01074,0.2959,0.01611,0.44336,0.01611  c1.61621,0,3.17188-0.64014,4.32422-1.79199c1.25684-1.25684,1.9043-2.99463,1.77539-4.76758  c-0.02734-0.38721-0.27734-0.72314-0.63965-0.86182c-6.68555-2.55859-14.14941-8.80469-14.22461-8.86768  c-0.39551-0.33398-0.98438-0.30908-1.35059,0.05811c-0.36719,0.36719-0.39258,0.9541-0.05762,1.35107  C57.07227,57.60693,63.31934,65.07031,65.87793,71.75586z M71.28711,66.60449c-0.07324,0.97559-0.49316,1.8999-1.19434,2.60156  c-0.70215,0.70166-1.62598,1.12109-2.60156,1.19434c-1.24121-3.01611-3.08691-6.07715-4.78223-8.57812  C65.20996,63.51709,68.27051,65.36377,71.28711,66.60449z"></path><path d="M76.88184,80.64551c1.24219,0,2.41016-0.4834,3.28809-1.36182c0.87891-0.87793,1.3623-2.0459,1.3623-3.28809  c0-1.2417-0.4834-2.40918-1.3623-3.2876c-0.87793-0.87842-2.04492-1.3623-3.28809-1.3623c-1.24219,0-2.40918,0.48389-3.28711,1.3623  c-0.87891,0.87793-1.3623,2.0459-1.3623,3.2876c0,1.24219,0.4834,2.41016,1.3623,3.28809  C74.47266,80.16211,75.64062,80.64551,76.88184,80.64551z M75.00879,74.12207c0.50098-0.50049,1.16602-0.77637,1.87305-0.77637  c0.70801,0,1.37305,0.27588,1.87402,0.77637s0.77637,1.16602,0.77637,1.87354c0,0.70801-0.27539,1.37354-0.77637,1.87402  c-0.99902,1-2.74609,1.00195-3.74707,0c-0.50098-0.50049-0.77637-1.16602-0.77637-1.87402  C74.23242,75.28809,74.50781,74.62256,75.00879,74.12207z"></path><path d="M32.59082,72.41211c0.14746,0,0.29492-0.00537,0.44336-0.01611c0.38672-0.02832,0.72266-0.27783,0.86133-0.64014  c2.55957-6.68555,8.80469-14.14893,8.86719-14.22363c0.33496-0.39746,0.30957-0.98438-0.05762-1.35107  c-0.36719-0.36719-0.95312-0.39209-1.35156-0.05811c-0.07422,0.06299-7.53027,6.30664-14.22266,8.86768  c-0.3623,0.13867-0.6123,0.47461-0.63965,0.86182c-0.12891,1.77295,0.51855,3.51074,1.77539,4.76758  C29.41797,71.77197,30.97363,72.41211,32.59082,72.41211z M37.06445,61.82227c-1.69531,2.50098-3.54102,5.56201-4.78223,8.57812  c-0.97559-0.07324-1.90039-0.49268-2.60156-1.19434c-0.70215-0.70166-1.12109-1.62598-1.19434-2.60156  C31.50293,65.36377,34.56348,63.51709,37.06445,61.82227z"></path><path d="M19.60254,79.28369c0.90625,0.90625,2.09766,1.35938,3.28809,1.35938s2.38184-0.45312,3.28809-1.35938  c0.87891-0.87793,1.3623-2.0459,1.3623-3.28809c0-1.2417-0.4834-2.40967-1.3623-3.2876  c-0.87793-0.87842-2.0459-1.3623-3.28809-1.3623s-2.41016,0.48389-3.28809,1.3623  C17.79004,74.521,17.79004,77.4707,19.60254,79.28369z M21.0166,74.12207c0.50098-0.50049,1.16602-0.77637,1.87402-0.77637  s1.37305,0.27588,1.87402,0.77637s0.77637,1.16602,0.77637,1.87354c0,0.70801-0.27539,1.37354-0.77637,1.87402  c-1.0332,1.0332-2.71484,1.0332-3.74805,0C19.98438,76.83643,19.98438,75.15527,21.0166,74.12207z"></path><path d="M24.25488,45.37354c-1.34375,1.1626-2.11523,2.84912-2.11523,4.62646s0.77148,3.46387,2.11523,4.62646  c0.18555,0.16016,0.41895,0.24365,0.6543,0.24365c0.1377,0,0.27734-0.02832,0.40723-0.08691  c6.53711-2.91797,16.23145-3.77832,16.3291-3.78662c0.5166-0.04492,0.91406-0.47754,0.91406-0.99658  s-0.39746-0.95215-0.91504-0.99658c-0.09668-0.0083-9.78418-0.86572-16.32812-3.78662  C24.96484,45.05859,24.5498,45.11963,24.25488,45.37354z M34.58105,50c-2.9668,0.56982-6.43652,1.42871-9.44629,2.68408  c-0.63867-0.7417-0.99512-1.69189-0.99512-2.68408s0.35645-1.94238,0.99512-2.68408  C28.14453,48.57129,31.61426,49.43018,34.58105,50z"></path><path d="M14.53711,54.6499c2.56445,0,4.65039-2.08594,4.65039-4.6499s-2.08594-4.6499-4.65039-4.6499  c-2.56348,0-4.64941,2.08594-4.64941,4.6499S11.97363,54.6499,14.53711,54.6499z M14.53711,47.3501  c1.46191,0,2.65039,1.18896,2.65039,2.6499s-1.18848,2.6499-2.65039,2.6499c-1.46094,0-2.64941-1.18896-2.64941-2.6499  S13.07617,47.3501,14.53711,47.3501z"></path><path d="M43.70508,43.81885c0.36719-0.36719,0.39258-0.9541,0.05762-1.35107c-0.0625-0.07471-6.30762-7.53809-8.86719-14.22363  c-0.13867-0.3623-0.47461-0.61182-0.86133-0.64014c-1.77734-0.12695-3.51074,0.51855-4.76758,1.77588  c-1.25684,1.25684-1.9043,2.99463-1.77539,4.76758c0.02734,0.38721,0.27734,0.72314,0.63965,0.86182  c6.68555,2.55859,14.14844,8.80469,14.22266,8.86768c0.1875,0.15723,0.41602,0.23486,0.64453,0.23486  C43.25488,44.11182,43.51074,44.01318,43.70508,43.81885z M29.48633,33.39551c0.07324-0.97559,0.49219-1.8999,1.19434-2.60156  c0.70117-0.70166,1.62598-1.12109,2.60156-1.19434c1.24121,3.01611,3.08691,6.07715,4.78223,8.57812  C35.56348,36.48291,32.50293,34.63623,29.48633,33.39551z"></path><path d="M27.17871,20.71631c-1.8125-1.8125-4.76367-1.8125-6.57617,0c-1.8125,1.81299-1.8125,4.7627,0,6.57568  c0.87793,0.87842,2.0459,1.3623,3.28809,1.3623s2.41016-0.48389,3.28809-1.3623c0.87891-0.87793,1.3623-2.0459,1.3623-3.2876  C28.54102,22.76221,28.05762,21.59424,27.17871,20.71631z M25.76465,25.87793c-1.00195,1.00098-2.74609,1.00098-3.74805,0  c-1.03223-1.0332-1.03223-2.71436,0-3.74756c1.0332-1.03223,2.71484-1.03223,3.74805,0  c0.50098,0.50049,0.77637,1.16602,0.77637,1.87402C26.54102,24.71191,26.26562,25.37744,25.76465,25.87793z"></path><path d="M53.5,90c0.55273,0,1-0.44775,1-1V47.99951C54.5,46.3457,53.1543,45,51.5,45h-3c-1.6543,0-3,1.3457-3,2.99951V89  c0,0.55225,0.44727,1,1,1s1-0.44775,1-1V62.38867h5V89C52.5,89.55225,52.94727,90,53.5,90z M47.5,60.38867V47.99951  C47.5,47.44824,47.94824,47,48.5,47h3c0.55176,0,1,0.44824,1,0.99951v12.38916H47.5z"></path></svg>